<svg id="visual" viewBox="0 0 540 960" width="540" height="960" xmlns="http://www.w3.org/2000/svg" xmlns:xlink="http://www.w3.org/1999/xlink" version="1.1"><rect x="0" y="0" width="540" height="960" fill="#ffffff"></rect><defs><linearGradient id="grad1_0" x1="0%" y1="0%" x2="100%" y2="100%"><stop offset="30%" stop-color="#ffffff" stop-opacity="1"></stop><stop offset="70%" stop-color="#ffffff" stop-opacity="1"></stop></linearGradient></defs><defs><linearGradient id="grad2_0" x1="0%" y1="0%" x2="100%" y2="100%"><stop offset="30%" stop-color="#ffffff" stop-opacity="1"></stop><stop offset="70%" stop-color="#ffffff" stop-opacity="1"></stop></linearGradient></defs><g transform="translate(540, 0)"><path d="M0 243C-25.3 241 -50.7 239.1 -75.1 231.1C-99.5 223.1 -122.9 209.1 -138.1 190.1C-153.3 171.1 -160.3 147.1 -176.4 128.1C-192.4 109.2 -217.5 95.3 -230.2 74.8C-242.8 54.3 -242.9 27.1 -243 0L0 0Z" fill="#FF4B2B"></path></g><g transform="translate(0, 960)"><path d="M0 -243C26.3 -242.4 52.6 -241.7 75.1 -231.1C97.6 -220.5 116.3 -200 130.5 -179.6C144.7 -159.2 154.3 -139.1 166.7 -121.1C179 -103.1 194.1 -87.2 207.3 -67.4C220.5 -47.5 231.8 -23.8 243 0L0 0Z" fill="#FF4B2B"></path></g></svg>