<svg id="visual" viewBox="0 0 540 960" width="540" height="960" xmlns="http://www.w3.org/2000/svg" xmlns:xlink="http://www.w3.org/1999/xlink" version="1.1"><g transform="translate(288.05941824340323 465.6677926832719)"><path d="M211.9 -381.5C268.5 -334.4 304 -265.2 357 -197.9C410 -130.7 480.5 -65.3 468.7 -6.8C456.8 51.7 362.6 103.3 296.3 147.5C230 191.7 191.5 228.3 146.7 272.7C102 317 51 369 -25.1 412.5C-101.2 456 -202.5 491.1 -251.3 449.1C-300.1 407.1 -296.4 288 -336.4 200.4C-376.5 112.7 -460.2 56.3 -491.7 -18.2C-523.2 -92.7 -502.3 -185.3 -437 -229.2C-371.6 -273 -261.8 -268 -181.5 -301.5C-101.3 -335 -50.6 -407 13.5 -430.4C77.7 -453.9 155.3 -428.7 211.9 -381.5" fill="#ffffff"></path></g></svg>